<?xml version="1.0" encoding="UTF-8"?>
<svg width="417px" height="349px" viewBox="0 0 417 349" version="1.1" xmlns="http://www.w3.org/2000/svg" xmlns:xlink="http://www.w3.org/1999/xlink">
    <!-- Generator: Sketch 55.2 (78181) - https://sketchapp.com -->
    <title>编组 4</title>
    <desc>Created with Sketch.</desc>
    <defs>
        <linearGradient x1="50%" y1="100%" x2="50%" y2="3.061617e-15%" id="linearGradient-1">
            <stop stop-color="#2899E3" stop-opacity="0.1" offset="0%"></stop>
            <stop stop-color="#5AC7FF" stop-opacity="0.2" offset="100%"></stop>
        </linearGradient>
        <linearGradient x1="100%" y1="50%" x2="0%" y2="50%" id="linearGradient-2">
            <stop stop-color="#2899E3" stop-opacity="0" offset="0%"></stop>
            <stop stop-color="#5AC7FF" offset="100%"></stop>
        </linearGradient>
        <filter x="0.0%" y="0.0%" width="100.0%" height="100.0%" filterUnits="objectBoundingBox" id="filter-3">
            <feOffset dx="0" dy="0" in="SourceAlpha" result="shadowOffsetOuter1"></feOffset>
            <feColorMatrix values="0 0 0 0 1   0 0 0 0 1   0 0 0 0 1  0 0 0 1 0" type="matrix" in="shadowOffsetOuter1" result="shadowMatrixOuter1"></feColorMatrix>
            <feMerge>
                <feMergeNode in="shadowMatrixOuter1"></feMergeNode>
                <feMergeNode in="SourceGraphic"></feMergeNode>
            </feMerge>
        </filter>
        <linearGradient x1="100%" y1="50%" x2="-2.22044605e-14%" y2="50%" id="linearGradient-4">
            <stop stop-color="#FFFFFF" stop-opacity="0" offset="0%"></stop>
            <stop stop-color="#FFFFFF" offset="100%"></stop>
        </linearGradient>
        <linearGradient x1="100%" y1="50%" x2="-2.22044605e-14%" y2="50%" id="linearGradient-5">
            <stop stop-color="#FFFFFF" offset="0%"></stop>
            <stop stop-color="#FFFFFF" stop-opacity="0" offset="100%"></stop>
        </linearGradient>
        <linearGradient x1="100%" y1="50%" x2="-2.22044605e-14%" y2="50%" id="linearGradient-6">
            <stop stop-color="#FFFFFF" offset="0%"></stop>
            <stop stop-color="#FFFFFF" stop-opacity="0" offset="100%"></stop>
        </linearGradient>
        <linearGradient x1="100%" y1="50%" x2="-2.22044605e-14%" y2="50%" id="linearGradient-7">
            <stop stop-color="#FFFFFF" offset="0%"></stop>
            <stop stop-color="#FFFFFF" stop-opacity="0" offset="100%"></stop>
        </linearGradient>
        <linearGradient x1="100%" y1="50%" x2="-2.22044605e-14%" y2="50%" id="linearGradient-8">
            <stop stop-color="#FFFFFF" offset="0%"></stop>
            <stop stop-color="#FFFFFF" stop-opacity="0" offset="100%"></stop>
        </linearGradient>
        <linearGradient x1="100%" y1="50%" x2="0%" y2="50%" id="linearGradient-9">
            <stop stop-color="#2899E3" stop-opacity="0" offset="0%"></stop>
            <stop stop-color="#5AC7FF" offset="100%"></stop>
        </linearGradient>
        <linearGradient x1="100%" y1="50%" x2="0%" y2="50%" id="linearGradient-10">
            <stop stop-color="#2899E3" stop-opacity="0" offset="0%"></stop>
            <stop stop-color="#5AC7FF" offset="100%"></stop>
        </linearGradient>
    </defs>
    <g id="Page-1" stroke="none" stroke-width="1" fill="none" fill-rule="evenodd">
        <g id="Desktop-HD-Copy-27备份-6" transform="translate(-545.000000, -231.000000)">
            <g id="编组-4" transform="translate(545.000000, 230.000000)">
                <circle id="椭圆形" fill="url(#linearGradient-1)" cx="208.5" cy="178.5" r="129.5"></circle>
                <circle id="椭圆形" fill="url(#linearGradient-1)" cx="209" cy="179" r="150"></circle>
                <circle id="椭圆形" fill="url(#linearGradient-1)" cx="208.5" cy="178.5" r="171.5"></circle>
                <g id="编组" transform="translate(0.000000, 63.000000)">
                    <path d="M91.9161376,169.59596 C95.7689107,168.259952 98.5349716,164.598548 98.5349716,160.291096 C98.5349716,156.009035 95.8014257,152.365429 91.9841587,151.010101 L5.80808081,151.010101 C2.60036635,151.010101 7.39357277e-13,148.409735 7.38964445e-13,145.20202 C7.38571613e-13,141.994306 2.60036635,139.393939 5.80808081,139.393939 L87.2030716,139.393939 C90.4107861,139.393939 93.0111524,136.793573 93.0111524,133.585859 C93.0111524,130.378144 90.4107861,127.777778 87.2030716,127.777778 L62.0019776,127.777778 C58.5804156,127.777778 55.8066914,125.004054 55.8066914,121.582492 C55.8066914,118.160929 58.5804156,115.387205 62.0019776,115.387205 L118.990068,115.387205 C127.330126,115.387205 134.091078,108.626253 134.091078,100.286195 C134.091078,91.9461377 127.330126,85.1851852 118.990068,85.1851852 L96.9171392,85.1851852 C96.9213191,85.1695842 96.9255023,85.1539844 96.9296886,85.138386 C84.791571,84.3718394 75.1840149,74.2843332 75.1840149,61.952862 C75.1840149,49.1220041 85.5854803,38.7205387 98.4163381,38.7205387 L121.974229,38.7205387 C143.060104,14.9688429 173.836659,0 208.112454,0 C255.580848,0 296.337924,28.7092757 313.938353,69.6969697 L350.348147,69.6969697 C354.197404,69.6969697 357.317844,72.8174093 357.317844,76.6666667 C357.317844,80.515924 354.197404,83.6363636 350.348147,83.6363636 L317.004825,83.6363636 C311.872482,83.6363636 307.711896,87.7969498 307.711896,92.9292929 C307.711896,98.0616361 311.872482,102.222222 317.004825,102.222222 L361.624321,102.222222 L400.737374,102.222222 C409.718974,102.222222 417,109.503248 417,118.484848 C417,127.466449 409.718974,134.747475 400.737374,134.747475 L315.456004,134.747475 C311.179051,134.747475 307.711896,138.21463 307.711896,142.491582 C307.711896,146.768535 311.179051,150.23569 315.456004,150.23569 L360.424355,150.23569 C364.273612,150.23569 367.394052,153.35613 367.394052,157.205387 C367.394052,161.054645 364.273612,164.175084 360.424355,164.175084 L294.524401,164.175084 C287.681277,164.175084 282.133829,169.722532 282.133829,176.565657 C282.133829,183.408781 287.681277,188.956229 294.524401,188.956229 L303.070206,188.956229 C308.630245,188.956229 313.137546,193.463531 313.137546,199.023569 C313.137546,204.583607 308.630245,209.090909 303.070206,209.090909 L274.307822,209.090909 C255.584529,222.264249 232.752678,230 208.112454,230 C175.738772,230 146.48673,216.646431 125.573142,195.151515 L80.9859562,195.151515 C73.9289844,195.151515 68.2081784,189.430709 68.2081784,182.373737 C68.2081784,175.316766 73.9289844,169.59596 80.9859562,169.59596 L91.9161376,169.59596 Z" id="形状结合" fill="url(#linearGradient-2)"></path>
                    <g id="编组-2" filter="url(#filter-3)" transform="translate(148.196597, 81.130137)">
                        <rect id="矩形" fill="url(#linearGradient-4)" x="0.788279773" y="0.787671233" width="36.2608696" height="7.0890411" rx="3.54452055"></rect>
                        <rect id="矩形备份-20" fill="url(#linearGradient-4)" x="50.4499055" y="0.787671233" width="36.2608696" height="7.0890411" rx="3.54452055"></rect>
                        <rect id="矩形备份-22" fill="url(#linearGradient-4)" x="99.3232514" y="0.787671233" width="36.2608696" height="7.0890411" rx="3.54452055"></rect>
                        <path d="M-10.6279084,14.9628871 L18.5107061,14.9628871 C20.4698032,14.9628871 22.0579651,16.5510491 22.0579651,18.5101461 C22.0579651,20.4692431 20.4698032,22.0574051 18.5107061,22.0574051 L-10.6279084,22.0574051 C-12.5870054,22.0574051 -14.1751674,20.4692431 -14.1751674,18.5101461 C-14.1751674,16.5510491 -12.5870054,14.9628871 -10.6279084,14.9628871 Z" id="矩形备份-16" fill="url(#linearGradient-5)" transform="translate(3.941399, 18.510146) rotate(-270.000000) translate(-3.941399, -18.510146) "></path>
                        <path d="M23.279812,30.7164397 L82.3496776,30.7164397 C84.3087746,30.7164397 85.8969366,32.3046016 85.8969366,34.2636986 C85.8969366,36.2227957 84.3087746,37.8109576 82.3496776,37.8109576 L23.279812,37.8109576 C21.320715,37.8109576 19.732553,36.2227957 19.732553,34.2636986 C19.732553,32.3046016 21.320715,30.7164397 23.279812,30.7164397 Z" id="矩形备份-21" fill="url(#linearGradient-6)" transform="translate(52.814745, 34.263699) rotate(-270.000000) translate(-52.814745, -34.263699) "></path>
                        <path d="M72.9414377,30.7164397 L132.011303,30.7164397 C133.9704,30.7164397 135.558562,32.3046016 135.558562,34.2636986 C135.558562,36.2227957 133.9704,37.8109576 132.011303,37.8109576 L72.9414377,37.8109576 C70.9823407,37.8109576 69.3941787,36.2227957 69.3941787,34.2636986 C69.3941787,32.3046016 70.9823407,30.7164397 72.9414377,30.7164397 Z" id="矩形备份-25" fill="url(#linearGradient-6)" transform="translate(102.476371, 34.263699) rotate(-270.000000) translate(-102.476371, -34.263699) "></path>
                        <rect id="矩形备份-17" fill="url(#linearGradient-7)" transform="translate(18.918715, 34.263699) rotate(-360.000000) translate(-18.918715, -34.263699) " x="0.788279773" y="30.7191781" width="36.2608696" height="7.0890411" rx="3.54452055"></rect>
                        <path d="M19.3268509,45.6821931 L48.4652096,45.6821931 C50.4243067,45.6821931 52.0124686,47.270355 52.0124686,49.2294521 C52.0124686,51.1885491 50.4243067,52.776711 48.4652096,52.776711 L19.3268509,52.776711 C17.3677538,52.776711 15.7795919,51.1885491 15.7795919,49.2294521 C15.7795919,47.270355 17.3677538,45.6821931 19.3268509,45.6821931 Z" id="矩形备份-18" fill="url(#linearGradient-8)" transform="translate(33.896030, 49.229452) rotate(-270.000000) translate(-33.896030, -49.229452) "></path>
                        <path d="M54.0227232,30.7164397 L113.092589,30.7164397 C115.051686,30.7164397 116.639848,32.3046016 116.639848,34.2636986 C116.639848,36.2227957 115.051686,37.8109576 113.092589,37.8109576 L54.0227232,37.8109576 C52.0636261,37.8109576 50.4754642,36.2227957 50.4754642,34.2636986 C50.4754642,32.3046016 52.0636261,30.7164397 54.0227232,30.7164397 Z" id="矩形备份-23" fill="url(#linearGradient-6)" transform="translate(83.557656, 34.263699) rotate(-90.000000) translate(-83.557656, -34.263699) "></path>
                        <path d="M102.896069,30.7164397 L161.965935,30.7164397 C163.925032,30.7164397 165.513194,32.3046016 165.513194,34.2636986 C165.513194,36.2227957 163.925032,37.8109576 161.965935,37.8109576 L102.896069,37.8109576 C100.936972,37.8109576 99.3488101,36.2227957 99.3488101,34.2636986 C99.3488101,32.3046016 100.936972,30.7164397 102.896069,30.7164397 Z" id="矩形备份-26" fill="url(#linearGradient-6)" transform="translate(132.431002, 34.263699) rotate(-90.000000) translate(-132.431002, -34.263699) "></path>
                        <rect id="矩形备份-19" fill="url(#linearGradient-7)" transform="translate(18.918715, 63.407534) rotate(-180.000000) translate(-18.918715, -63.407534) " x="0.788279773" y="59.8630137" width="36.2608696" height="7.0890411" rx="3.54452055"></rect>
                        <rect id="矩形备份-24" fill="url(#linearGradient-7)" transform="translate(68.580340, 63.407534) rotate(-360.000000) translate(-68.580340, -63.407534) " x="50.4499055" y="59.8630137" width="36.2608696" height="7.0890411" rx="3.54452055"></rect>
                        <rect id="矩形备份-27" fill="url(#linearGradient-7)" transform="translate(117.453686, 63.407534) rotate(-360.000000) translate(-117.453686, -63.407534) " x="99.3232514" y="59.8630137" width="36.2608696" height="7.0890411" rx="3.54452055"></rect>
                    </g>
                </g>
                <circle id="椭圆形" fill="url(#linearGradient-9)" cx="379.5" cy="52.5" r="10.5"></circle>
                <circle id="椭圆形备份" fill="url(#linearGradient-9)" cx="118.5" cy="321.5" r="18.5"></circle>
                <path d="M275.897804,20.4956766 L342.901818,20.495341 C345.078598,20.4953301 346.843236,22.2599499 346.843246,24.4367297 C346.843246,24.4367363 346.843246,24.4367428 346.843246,24.4367494 C346.843246,26.6135433 345.078612,28.3781864 342.901818,28.3781973 L275.897804,28.3785328 C273.721024,28.3785437 271.956386,26.6139239 271.956376,24.4371442 C271.956376,24.4371376 271.956376,24.437131 271.956376,24.4371244 C271.956376,22.2603306 273.72101,20.4956875 275.897804,20.4956766 Z" id="矩形" fill="url(#linearGradient-10)" transform="translate(309.399811, 24.436937) rotate(-34.000000) translate(-309.399811, -24.436937) "></path>
            </g>
        </g>
    </g>
</svg>